# xmcd
#
# Track frame offsets: 
#        183
#        14483
#        38008
#        52433
#        61065
#
# Disc length: 935 seconds
#
# Revision: 0
# Processed by: cddbd v1.5.1PL0 Copyright (c) Steve Scherf et al.
# Submitted via: ExactAudioCopy v0.95a5
#
DISCID=3f03a505
DTITLE=2 STATIC - Feel That Beat (maxi)
DYEAR=1990
DGENRE=Dance
TTITLE0=Feel That Beat (radio version) (feat. Nasty Cat)
TTITLE1=Feel That Beat (club mix) (feat. Nasty Cat)
TTITLE2=Feel That Beat (instrumental)
TTITLE3=Feel That Beat (acapella) (feat. Nasty Cat)
TTITLE4=Feel That Beat (the beat)
EXTD=
EXTT0=
EXTT1=
EXTT2=
EXTT3=
EXTT4=
PLAYORDER=
